<svg id="Layer_1" data-name="Layer 1" xmlns="http://www.w3.org/2000/svg" viewBox="0 0 152 152"><defs><style>.cls-1{fill:#071d9a;}.cls-2{fill:#3a8ffe;opacity:0.8;}</style></defs><path class="cls-1" d="M103.75,109.09c-.47,1-.79,1.58-.79,1.58C96.86,122,86.5,133.74,70,145.16a43.26,43.26,0,0,0-17.21-40.4s12.84-7.08,23.62-24c7.09-11,13.23-26.22,14.38-46.3C120.17,67.91,107.25,101.53,103.75,109.09Z"/><path class="cls-2" d="M103.75,109.09c-.47,1-.79,1.58-.79,1.58C97,96.61,86.74,87.12,76.38,80.78a93.44,93.44,0,0,0-34-12.4C70.48,47.2,54.73,6.84,54.73,6.84c16.14,8.82,27.8,18.23,36,27.64C120.17,67.91,107.25,101.53,103.75,109.09Z"/></svg>