<svg version="1.1" id="Layer_1" xmlns="http://www.w3.org/2000/svg" xmlns:xlink="http://www.w3.org/1999/xlink" x="0px" y="0px"
	 width="100%" viewBox="0 0 1050 1050" enable-background="new 0 0 1050 1050" xml:space="preserve">
<path fill="#FEFEFE" opacity="1.000000" stroke="none" 
	d="
M697.000000,1051.000000 
	C464.694183,1051.000000 232.888382,1051.000000 1.041289,1051.000000 
	C1.041289,701.069092 1.041289,351.138153 1.041289,1.103624 
	C350.889343,1.103624 700.778687,1.103624 1050.833984,1.103624 
	C1050.833984,350.999939 1050.833984,700.999939 1050.833984,1051.000000 
	C933.137756,1051.000000 815.318909,1051.000000 697.000000,1051.000000 
M253.367371,834.979492 
	C278.172821,847.453003 302.994934,859.893616 327.780487,872.406555 
	C386.852417,902.228943 445.899170,932.101257 505.010773,961.844727 
	C506.596802,962.642822 508.808472,962.197693 511.397888,962.239319 
	C512.452942,961.751465 513.524048,961.295227 514.560852,960.771301 
	C622.348267,906.305420 730.125427,851.819275 837.958557,797.444092 
	C840.943359,795.939026 841.950867,794.344482 841.942688,791.031006 
	C841.827026,744.217346 841.865479,697.403320 841.859558,650.589355 
	C841.859497,649.835388 841.771484,649.081421 841.694397,647.844238 
	C839.605774,648.811890 837.961121,649.511963 836.371033,650.319519 
	C739.068481,699.735779 641.752625,749.125793 544.494751,798.629761 
	C532.507629,804.731140 520.832397,811.445251 508.406311,817.593994 
	C504.250549,815.173157 500.213593,812.515076 495.921509,810.366699 
	C415.811676,770.266724 335.672119,730.226074 255.531464,690.187683 
	C254.287323,689.566101 252.950806,689.129333 251.480087,688.534607 
	C251.480087,692.759216 251.480087,696.390869 251.281860,700.937927 
	C251.256912,743.916992 251.214355,786.895996 251.277786,829.874939 
	C251.280090,831.432251 252.324753,832.988037 253.367371,834.979492 
M655.857178,294.325684 
	C675.193298,284.607666 694.988220,275.693542 713.757935,264.982971 
	C741.834534,248.961609 757.442383,224.858643 757.235596,191.579300 
	C757.035889,159.432663 757.227295,127.283623 757.229126,95.135643 
	C757.229248,93.240112 757.070801,91.344559 756.957886,88.815315 
	C754.428345,89.938499 752.611572,90.676849 750.854004,91.536247 
	C734.251160,99.654388 717.629456,107.734627 701.071228,115.942947 
	C685.563965,123.630280 670.126953,131.459564 654.005005,139.354996 
	C652.949646,139.845276 651.880859,140.308746 650.840820,140.829681 
	C536.922791,197.893143 423.014679,254.976456 309.050964,311.948547 
	C305.824219,313.561676 304.958130,315.476074 304.964874,318.870056 
	C305.061646,367.701935 305.026855,416.534058 305.036133,465.366119 
	C305.036407,466.794739 305.173462,468.223358 305.281067,470.320709 
	C307.672150,469.158081 309.581909,468.255005 311.469635,467.308014 
	C415.517944,415.112000 519.568298,362.920013 623.605042,310.700989 
	C634.157166,305.404572 644.626343,299.942749 655.857178,294.325684 
M510.628448,765.625061 
	C576.760498,731.558716 642.878052,697.463989 709.070618,663.515686 
	C712.129822,661.946716 712.929382,660.201782 712.921753,656.993225 
	C712.813477,611.663086 712.834961,566.332642 712.807678,521.002258 
	C712.806702,519.437988 712.624878,517.873901 712.496033,515.807434 
	C710.163696,516.898804 708.363281,517.682678 706.614380,518.568237 
	C667.116943,538.567078 627.609192,558.545654 588.137817,578.595764 
	C561.730652,592.009766 535.376587,605.528442 508.339691,618.763672 
	C381.464661,555.676636 254.589600,492.589600 126.979385,429.137024 
	C126.979385,431.929138 126.979820,433.556610 126.979324,435.184052 
	C126.965836,479.509003 127.054451,523.834473 126.803154,568.158081 
	C126.773338,573.416260 128.452454,575.895386 133.099304,578.216064 
	C257.392242,640.290710 381.597687,702.540466 505.838318,764.719910 
	C507.068573,765.335632 508.570435,765.408691 510.628448,765.625061 
M398.389343,513.060364 
	C433.143585,530.644958 467.949646,548.128601 502.590851,565.933105 
	C507.278778,568.342590 510.744476,568.185364 515.362915,565.825623 
	C639.301392,502.500702 763.312073,439.316956 887.376587,376.239288 
	C890.704224,374.547394 891.336060,372.524506 891.331055,369.244659 
	C891.260803,323.426575 891.289368,277.608337 891.293945,231.790131 
	C891.294067,230.320847 891.294006,228.851562 891.294006,226.359116 
	C713.685730,315.342987 536.836975,403.946350 358.938232,493.075714 
	C372.605743,500.020172 385.153961,506.395905 398.389343,513.060364 
z"/>
<path fill="#04A193" opacity="1.000000" stroke="none" 
	d="
M398.045776,512.916016 
	C385.153961,506.395905 372.605743,500.020172 358.938232,493.075714 
	C536.836975,403.946350 713.685730,315.342987 891.294006,226.359116 
	C891.294006,228.851562 891.294067,230.320847 891.293945,231.790131 
	C891.289368,277.608337 891.260803,323.426575 891.331055,369.244659 
	C891.336060,372.524506 890.704224,374.547394 887.376587,376.239288 
	C763.312073,439.316956 639.301392,502.500702 515.362915,565.825623 
	C510.744476,568.185364 507.278778,568.342590 502.590851,565.933105 
	C467.949646,548.128601 433.143585,530.644958 398.045776,512.916016 
z"/>
<path fill="#193351" opacity="1.000000" stroke="none" 
	d="
M509.945496,765.735046 
	C508.570435,765.408691 507.068573,765.335632 505.838318,764.719910 
	C381.597687,702.540466 257.392242,640.290710 133.099304,578.216064 
	C128.452454,575.895386 126.773338,573.416260 126.803154,568.158081 
	C127.054451,523.834473 126.965836,479.509003 126.979324,435.184052 
	C126.979820,433.556610 126.979385,431.929138 126.979385,429.137024 
	C254.589600,492.589600 381.464661,555.676636 508.671936,619.350586 
	C509.001007,666.434692 508.985352,712.931885 509.034851,759.429016 
	C509.037079,761.531372 509.628510,763.633057 509.945496,765.735046 
z"/>
<path fill="#05A293" opacity="1.000000" stroke="none" 
	d="
M655.133972,294.557648 
	C644.626343,299.942749 634.157166,305.404572 623.605042,310.700989 
	C519.568298,362.920013 415.517944,415.112000 311.469635,467.308014 
	C309.581909,468.255005 307.672150,469.158081 305.281067,470.320709 
	C305.173462,468.223358 305.036407,466.794739 305.036133,465.366119 
	C305.026855,416.534058 305.061646,367.701935 304.964874,318.870056 
	C304.958130,315.476074 305.824219,313.561676 309.050964,311.948547 
	C423.014679,254.976456 536.922791,197.893143 650.840820,140.829681 
	C651.880859,140.308746 652.949646,139.845276 654.372498,139.742493 
	C654.755432,188.446671 654.764465,236.763382 654.801086,285.080078 
	C654.803528,288.239319 655.018066,291.398468 655.133972,294.557648 
z"/>
<path fill="#234164" opacity="1.000000" stroke="none" 
	d="
M509.012634,817.875427 
	C520.832397,811.445251 532.507629,804.731140 544.494751,798.629761 
	C641.752625,749.125793 739.068481,699.735779 836.371033,650.319519 
	C837.961121,649.511963 839.605774,648.811890 841.694397,647.844238 
	C841.771484,649.081421 841.859497,649.835388 841.859558,650.589355 
	C841.865479,697.403320 841.827026,744.217346 841.942688,791.031006 
	C841.950867,794.344482 840.943359,795.939026 837.958557,797.444092 
	C730.125427,851.819275 622.348267,906.305420 514.560852,960.771301 
	C513.524048,961.295227 512.452942,961.751465 510.662079,962.032288 
	C509.621002,959.912659 509.051208,958.000305 509.049164,956.087341 
	C509.000183,910.016724 509.011902,863.946106 509.012634,817.875427 
z"/>
<path fill="#193250" opacity="1.000000" stroke="none" 
	d="
M508.709473,817.734741 
	C509.011902,863.946106 509.000183,910.016724 509.049164,956.087341 
	C509.051208,958.000305 509.621002,959.912659 510.327332,962.078796 
	C508.808472,962.197693 506.596802,962.642822 505.010773,961.844727 
	C445.899170,932.101257 386.852417,902.228943 327.780487,872.406555 
	C302.994934,859.893616 278.172821,847.453003 253.161758,834.257324 
	C252.968567,790.452209 252.995468,747.369324 252.929703,704.286499 
	C252.927536,702.864441 251.984528,701.443787 251.480087,700.022522 
	C251.480087,696.390869 251.480087,692.759216 251.480087,688.534607 
	C252.950806,689.129333 254.287323,689.566101 255.531464,690.187683 
	C335.672119,730.226074 415.811676,770.266724 495.921509,810.366699 
	C500.213593,812.515076 504.250549,815.173157 508.709473,817.734741 
z"/>
<path fill="#234164" opacity="1.000000" stroke="none" 
	d="
M510.286987,765.680054 
	C509.628510,763.633057 509.037079,761.531372 509.034851,759.429016 
	C508.985352,712.931885 509.001007,666.434692 509.001465,619.468872 
	C535.376587,605.528442 561.730652,592.009766 588.137817,578.595764 
	C627.609192,558.545654 667.116943,538.567078 706.614380,518.568237 
	C708.363281,517.682678 710.163696,516.898804 712.496033,515.807434 
	C712.624878,517.873901 712.806702,519.437988 712.807678,521.002258 
	C712.834961,566.332642 712.813477,611.663086 712.921753,656.993225 
	C712.929382,660.201782 712.129822,661.946716 709.070618,663.515686 
	C642.878052,697.463989 576.760498,731.558716 510.286987,765.680054 
z"/>
<path fill="#F49C17" opacity="1.000000" stroke="none" 
	d="
M655.495605,294.441650 
	C655.018066,291.398468 654.803528,288.239319 654.801086,285.080078 
	C654.764465,236.763382 654.755432,188.446671 654.699524,139.678192 
	C670.126953,131.459564 685.563965,123.630280 701.071228,115.942947 
	C717.629456,107.734627 734.251160,99.654388 750.854004,91.536247 
	C752.611572,90.676849 754.428345,89.938499 756.957886,88.815315 
	C757.070801,91.344559 757.229248,93.240112 757.229126,95.135643 
	C757.227295,127.283623 757.035889,159.432663 757.235596,191.579300 
	C757.442383,224.858643 741.834534,248.961609 713.757935,264.982971 
	C694.988220,275.693542 675.193298,284.607666 655.495605,294.441650 
z"/>
<path fill="#0D253E" opacity="1.000000" stroke="none" 
	d="
M251.380981,700.480225 
	C251.984528,701.443787 252.927536,702.864441 252.929703,704.286499 
	C252.995468,747.369324 252.968567,790.452209 252.919891,834.039795 
	C252.324753,832.988037 251.280090,831.432251 251.277786,829.874939 
	C251.214355,786.895996 251.256912,743.916992 251.380981,700.480225 
z"/>
</svg>