<svg id="Layer_1" data-name="Layer 1" xmlns="http://www.w3.org/2000/svg" viewBox="0 0 245 95"><defs><style>.cls-1{fill:#fff;}.cls-2{fill:#3a8ffe;opacity:0.8;}</style></defs><path class="cls-1" d="M232.53,51.4c-.22.47-.36.72-.36.72-2.8,5.19-7.54,10.56-15.1,15.79a19.81,19.81,0,0,0-7.88-18.49,34,34,0,0,0,10.81-11,43,43,0,0,0,6.58-21.19C240,32.55,234.13,47.94,232.53,51.4Z"/><path class="cls-2" d="M232.53,51.4c-.22.47-.36.72-.36.72A29.71,29.71,0,0,0,220,38.45a42.74,42.74,0,0,0-15.55-5.68c12.85-9.69,5.64-28.16,5.64-28.16a59.26,59.26,0,0,1,16.49,12.65C240,32.55,234.13,47.94,232.53,51.4Z"/><path class="cls-1" d="M34.44,71.2H16.74c.63,3.29,3.38,5.41,7.31,5.41a8.07,8.07,0,0,0,6.12-2.46L33,77.41c-2,2.41-5.19,3.67-9.08,3.67-7.56,0-12.47-4.85-12.47-11.57S16.4,58,23.12,58s11.41,4.61,11.41,11.66C34.53,70.06,34.48,70.69,34.44,71.2ZM16.69,67.69H29.5a6.14,6.14,0,0,0-6.38-5.49A6.23,6.23,0,0,0,16.69,67.69Z"/><path class="cls-1" d="M61.66,58.22V80.79h-5V77.87a9.28,9.28,0,0,1-7.48,3.21c-6.59,0-11.41-4.56-11.41-11.57S42.56,58,49.15,58a9.38,9.38,0,0,1,7.23,3V58.22Zm-5.2,11.29c0-4.31-2.87-7.06-6.72-7.06s-6.67,2.75-6.67,7.06,2.87,7,6.67,7S56.46,73.82,56.46,69.51Z"/><path class="cls-1" d="M66,78.55l2-4a15.17,15.17,0,0,0,7.86,2.24c3.34,0,4.73-.93,4.73-2.49C80.64,70,66.7,74,66.7,65c0-4.27,3.84-7.06,9.93-7.06a18,18,0,0,1,8.45,1.94l-2,4a12.35,12.35,0,0,0-6.47-1.69c-3.21,0-4.73,1-4.73,2.53,0,4.57,14,.51,14,9.34,0,4.23-3.89,7-10.23,7C71.81,81.08,68.05,80,66,78.55Z"/><path class="cls-1" d="M112.21,58.22V77.37c0,8.19-4.1,11.91-11.7,11.91-4,0-8-1.1-10.53-3.21l2.37-4a12.24,12.24,0,0,0,7.86,2.66c4.65,0,6.72-2.24,6.72-6.8V76.9a9.36,9.36,0,0,1-7,2.87c-5.78,0-9.71-3.12-9.71-10V58.22h5.28V69.13c0,4.05,1.94,6,5.28,6,3.68,0,6.17-2.24,6.17-6.76V58.22Z"/><path class="cls-1" d="M142.39,69.68c0,6.76-4.73,11.32-11.07,11.32a9.71,9.71,0,0,1-8.45-4.39V89h-3V58.56h2.87V63a9.68,9.68,0,0,1,8.58-4.57C137.66,58.39,142.39,63,142.39,69.68Zm-3,0c0-5.16-3.59-8.67-8.28-8.67s-8.29,3.51-8.29,8.67,3.55,8.66,8.29,8.66S139.39,74.87,139.39,69.68Z"/><path class="cls-1" d="M168.81,58.56V80.79h-2.88v-4.4A9.62,9.62,0,0,1,157.36,81c-6.34,0-11.08-4.61-11.08-11.32S151,58.39,157.36,58.39a9.71,9.71,0,0,1,8.45,4.4V58.56Zm-3,11.12c0-5.2-3.55-8.67-8.24-8.67s-8.28,3.47-8.28,8.67,3.55,8.66,8.28,8.66S165.85,74.87,165.85,69.68Z"/><path class="cls-1" d="M197.21,58.56V78.08c0,7.65-3.51,11.12-10.35,11.12-3.81,0-7.57-1.23-9.72-3.43l1.52-2.28a11.4,11.4,0,0,0,8.07,3.05c5.15,0,7.48-2.58,7.48-8.08V75.89a8.84,8.84,0,0,1-7.86,4c-5.66,0-9.38-3.17-9.38-9.55V58.56h3V70.1c0,4.73,2.45,7.14,6.68,7.14,4.64,0,7.56-3,7.56-8.07V58.56Z"/></svg>